<svg width="120" height="144" viewBox="0 0 120 144" fill="none" xmlns="http://www.w3.org/2000/svg">
<mask id="path-1-inside-1_81_1665" fill="white">
<path d="M0 8C0 3.58172 3.58172 0 8 0H112C116.418 0 120 3.58172 120 8V78C120 82.4183 116.418 86 112 86H8C3.58172 86 0 82.4183 0 78V8Z"/>
</mask>
<path d="M0 8C0 3.58172 3.58172 0 8 0H112C116.418 0 120 3.58172 120 8V78C120 82.4183 116.418 86 112 86H8C3.58172 86 0 82.4183 0 78V8Z" fill="#2AE4B2"/>
<path d="M8 2H112V-2H8V2ZM118 8V78H122V8H118ZM112 84H8V88H112V84ZM2 78V8H-2V78H2ZM8 84C4.68629 84 2 81.3137 2 78H-2C-2 83.5229 2.47715 88 8 88V84ZM118 78C118 81.3137 115.314 84 112 84V88C117.523 88 122 83.5229 122 78H118ZM112 2C115.314 2 118 4.68629 118 8H122C122 2.47715 117.523 -2 112 -2V2ZM8 -2C2.47715 -2 -2 2.47715 -2 8H2C2 4.68629 4.68629 2 8 2V-2Z" fill="#4D4D4D" mask="url(#path-1-inside-1_81_1665)"/>
<path d="M43.932 46.48C43.324 46.48 42.868 46.592 42.564 46.816C42.276 47.024 42.132 47.36 42.132 47.824C42.132 48.288 42.284 48.656 42.588 48.928C42.892 49.184 43.324 49.312 43.884 49.312C44.316 49.312 44.708 49.24 45.06 49.096C45.428 48.952 45.732 48.752 45.972 48.496C46.228 48.224 46.396 47.92 46.476 47.584L47.076 49.48C46.724 50.36 46.164 51.032 45.396 51.496C44.628 51.96 43.684 52.192 42.564 52.192C41.636 52.192 40.836 52.016 40.164 51.664C39.508 51.312 39.004 50.832 38.652 50.224C38.3 49.616 38.124 48.92 38.124 48.136C38.124 46.904 38.548 45.944 39.396 45.256C40.26 44.568 41.492 44.216 43.092 44.2H46.884V46.48H43.932ZM46.476 44.056C46.476 43.432 46.268 42.944 45.852 42.592C45.436 42.24 44.82 42.064 44.004 42.064C43.46 42.064 42.852 42.152 42.18 42.328C41.508 42.504 40.82 42.768 40.116 43.12L38.94 40.288C39.628 39.984 40.292 39.728 40.932 39.52C41.588 39.296 42.252 39.128 42.924 39.016C43.596 38.904 44.284 38.848 44.988 38.848C46.796 38.848 48.188 39.264 49.164 40.096C50.156 40.912 50.66 42.064 50.676 43.552V52H46.476V44.056ZM61.7541 38.896C62.9701 38.896 64.0261 39.176 64.9221 39.736C65.8341 40.28 66.5381 41.056 67.0341 42.064C67.5461 43.056 67.8021 44.232 67.8021 45.592C67.8021 46.888 67.5541 48.032 67.0581 49.024C66.5781 50.016 65.8901 50.784 64.9941 51.328C64.1141 51.872 63.0661 52.144 61.8501 52.144C60.7621 52.144 59.8181 51.88 59.0181 51.352C58.2341 50.808 57.6261 50.048 57.1941 49.072C56.7781 48.08 56.5701 46.912 56.5701 45.568C56.5701 44.192 56.7781 43.008 57.1941 42.016C57.6101 41.008 58.2021 40.24 58.9701 39.712C59.7541 39.168 60.6821 38.896 61.7541 38.896ZM60.6981 42.184C60.1701 42.184 59.6901 42.328 59.2581 42.616C58.8421 42.888 58.5141 43.272 58.2741 43.768C58.0501 44.248 57.9381 44.816 57.9381 45.472C57.9381 46.112 58.0501 46.688 58.2741 47.2C58.5141 47.696 58.8421 48.08 59.2581 48.352C59.6901 48.624 60.1701 48.76 60.6981 48.76C61.2581 48.76 61.7461 48.624 62.1621 48.352C62.5941 48.064 62.9221 47.672 63.1461 47.176C63.3861 46.68 63.5061 46.112 63.5061 45.472C63.5061 44.832 63.3861 44.264 63.1461 43.768C62.9221 43.272 62.5941 42.888 62.1621 42.616C61.7461 42.328 61.2581 42.184 60.6981 42.184ZM53.6661 34.192H57.9381V52H53.6661V34.192ZM78.3752 43.696C78.0872 43.264 77.7272 42.936 77.2952 42.712C76.8792 42.472 76.3912 42.352 75.8312 42.352C75.3192 42.352 74.8632 42.488 74.4632 42.76C74.0792 43.016 73.7752 43.384 73.5512 43.864C73.3432 44.344 73.2392 44.904 73.2392 45.544C73.2392 46.184 73.3432 46.744 73.5512 47.224C73.7752 47.704 74.0792 48.08 74.4632 48.352C74.8632 48.624 75.3192 48.76 75.8312 48.76C76.4072 48.76 76.9032 48.64 77.3192 48.4C77.7512 48.16 78.1032 47.784 78.3752 47.272L81.5192 49.072C81.0072 50.048 80.2392 50.808 79.2152 51.352C78.1912 51.88 76.9912 52.144 75.6152 52.144C74.2872 52.144 73.1192 51.872 72.1112 51.328C71.1032 50.784 70.3192 50.016 69.7592 49.024C69.2152 48.032 68.9432 46.88 68.9432 45.568C68.9432 44.224 69.2232 43.056 69.7832 42.064C70.3432 41.056 71.1272 40.28 72.1352 39.736C73.1432 39.176 74.3192 38.896 75.6632 38.896C76.9592 38.896 78.1112 39.16 79.1192 39.688C80.1272 40.2 80.9112 40.936 81.4712 41.896L78.3752 43.696Z" fill="#1A1A1A"/>
<path d="M0 103C0 100.239 2.23858 98 5 98H105C107.761 98 110 100.239 110 103C110 105.761 107.761 108 105 108H5C2.23858 108 0 105.761 0 103Z" fill="#B3B3B3"/>
<path d="M0 121C0 118.239 2.23858 116 5 116H99C101.761 116 104 118.239 104 121C104 123.761 101.761 126 99 126H5C2.23858 126 0 123.761 0 121Z" fill="#B3B3B3"/>
<path d="M0 139C0 136.239 2.23858 134 5 134H115C117.761 134 120 136.239 120 139C120 141.761 117.761 144 115 144H5C2.23858 144 0 141.761 0 139Z" fill="#B3B3B3"/>
</svg>
