<svg width="149" height="146" viewBox="0 0 149 146" fill="none" xmlns="http://www.w3.org/2000/svg">
<path d="M64.5328 23.5127L65.649 7.55112C65.6875 7.00018 65.2721 6.52232 64.7212 6.4838L7.19764 2.46136C6.6467 2.42283 6.16884 2.83823 6.13032 3.38917L2.22595 59.2242C2.18742 59.7752 2.60282 60.253 3.15376 60.2916L20.1896 61.4828C20.8705 61.5304 21.3071 62.2316 21.1004 62.8821C19.5755 67.6812 19.3836 75.4245 28.6198 76.0703C37.8741 76.7174 38.9818 69.0079 38.2792 64.0547C38.185 63.3903 38.7115 62.778 39.3809 62.8248L60.6773 64.314C61.2282 64.3525 61.7061 63.9371 61.7446 63.3862L63.2291 42.1576C63.2772 41.4686 62.6258 40.9329 61.9418 41.0287C57.2165 41.6903 49.812 39.9161 50.4104 31.3582C50.9541 23.5831 58.8148 23.1726 62.9376 24.4878C63.6458 24.7137 64.481 24.2542 64.5328 23.5127Z" fill="#2AE4B2" stroke="#4D4D4D" stroke-width="2" stroke-linejoin="round"/>
<path d="M131.015 62.1142L146.928 60.4417C147.477 60.384 147.876 59.8919 147.818 59.3426L141.79 1.99452C141.733 1.44526 141.24 1.0468 140.691 1.10453L85.0264 6.95513C84.4772 7.01286 84.0787 7.50493 84.1364 8.05419L85.9215 25.0381C85.9928 25.7169 85.3782 26.2686 84.7016 26.178C79.7106 25.5097 72.0517 26.6652 73.0195 35.8733C73.9892 45.0993 81.7739 44.8515 86.53 43.2995C87.1679 43.0913 87.8623 43.5035 87.9324 44.1708L90.164 65.4023C90.2217 65.9516 90.7137 66.35 91.263 66.2923L112.427 64.0679C113.114 63.9957 113.528 63.2611 113.315 62.6042C111.843 58.0655 112.304 50.4654 120.836 49.5687C128.588 48.754 130.357 56.4239 129.778 60.7125C129.678 61.4492 130.276 62.1919 131.015 62.1142Z" fill="#CCCCCC" stroke="#4D4D4D" stroke-width="2" stroke-linejoin="round"/>
<path d="M82.433 121.856L80.7605 137.769C80.7027 138.318 81.1012 138.81 81.6505 138.868L138.999 144.895C139.548 144.953 140.04 144.555 140.098 144.005L145.948 88.3407C146.006 87.7914 145.608 87.2994 145.058 87.2416L128.074 85.4566C127.396 85.3852 126.984 84.6692 127.213 84.0263C128.904 79.2833 129.366 71.5515 120.158 70.5837C110.932 69.614 109.556 77.2802 110.085 82.2549C110.156 82.9222 109.609 83.5158 108.942 83.4456L87.7101 81.2141C87.1609 81.1564 86.6688 81.5548 86.6111 82.1041L84.3867 103.268C84.3145 103.955 84.9468 104.513 85.6337 104.441C90.3793 103.945 97.7174 105.976 96.8206 114.508C96.0059 122.26 88.1357 122.395 84.0613 120.937C83.3614 120.687 82.5107 121.117 82.433 121.856Z" fill="#2AE4B2" stroke="#4D4D4D" stroke-width="2" stroke-linejoin="round"/>
<path d="M17.9358 83.6473L1.99621 85.0418C1.44602 85.0899 1.03903 85.575 1.08717 86.1251L6.11292 143.57C6.16105 144.12 6.64608 144.527 7.19627 144.479L62.9547 139.601C63.5049 139.552 63.9119 139.067 63.8637 138.517L62.3753 121.505C62.3158 120.825 62.9401 120.284 63.6149 120.386C68.5935 121.142 76.2714 120.12 75.4645 110.896C74.6559 101.655 66.8681 101.767 62.0857 103.235C61.4442 103.432 60.7571 103.008 60.6986 102.34L58.838 81.0726C58.7898 80.5224 58.3048 80.1154 57.7546 80.1636L36.5552 82.0183C35.8672 82.0785 35.4399 82.8057 35.6415 83.4663C37.0342 88.0299 36.4402 95.6208 27.894 96.3685C20.1296 97.0478 18.4945 89.3481 19.1485 85.0703C19.2609 84.3355 18.6764 83.5825 17.9358 83.6473Z" fill="#CCCCCC" stroke="#4D4D4D" stroke-width="2" stroke-linejoin="round"/>
</svg>
