<svg width="18" height="16" viewBox="0 0 18 16" fill="none" xmlns="http://www.w3.org/2000/svg">
<path d="M7.25 7.4375C8.59375 7.8125 9.25 8.84375 9.25 10.2188C9.25 12.4688 7.375 13.4375 5.34375 13.4375H0V2.375H5.21875C7.09375 2.375 8.75 2.90625 8.75 5.125C8.75 6.21875 8.21875 6.9375 7.25 7.4375ZM2.40625 4.25V6.84375H4.875C5.75 6.84375 6.375 6.46875 6.375 5.53125C6.375 4.5 5.59375 4.25 4.71875 4.25H2.40625ZM5.03125 11.5625C6 11.5625 6.8125 11.2188 6.8125 10.0938C6.8125 8.96875 6.15625 8.5 5.0625 8.5H2.40625V11.5625H5.03125ZM16.2188 4.03125H11.75V2.9375H16.2188V4.03125ZM18 9.5625C18 9.6875 17.9688 9.84375 17.9688 9.96875H12.1875C12.1875 11.25 12.875 12 14.1562 12C14.8125 12 15.6875 11.6562 15.9062 10.9688H17.8438C17.25 12.7812 16 13.6562 14.0938 13.6562C11.5625 13.6562 9.96875 11.9375 9.96875 9.4375C9.96875 7.03125 11.625 5.1875 14.0938 5.1875C16.5938 5.1875 18 7.1875 18 9.5625ZM12.1875 8.5625H15.7812C15.6875 7.5 15.125 6.875 14 6.875C12.9688 6.875 12.25 7.53125 12.1875 8.5625Z" fill="white"/>
</svg>
