<svg width="18" height="20" viewBox="0 0 18 20" fill="none" xmlns="http://www.w3.org/2000/svg">
<path d="M5.125 16H2.21875V6.65625H5.125V16ZM3.65625 5.40625C2.75 5.40625 2 4.625 2 3.6875C2 2.78125 2.75 2.03125 3.65625 2.03125C4.59375 2.03125 5.34375 2.78125 5.34375 3.6875C5.34375 4.625 4.59375 5.40625 3.65625 5.40625ZM15.9688 16H13.0938V11.4688C13.0938 10.375 13.0625 9 11.5625 9C10.0625 9 9.84375 10.1562 9.84375 11.375V16H6.9375V6.65625H9.71875V7.9375H9.75C10.1562 7.21875 11.0938 6.4375 12.5 6.4375C15.4375 6.4375 16 8.375 16 10.875V16H15.9688Z" fill="white"/>
</svg>
