<svg width="24" height="24" viewBox="0 0 24 24" fill="none" xmlns="http://www.w3.org/2000/svg">
<path fill-rule="evenodd" clip-rule="evenodd" d="M12 1.5C6.20156 1.5 1.5 6.20156 1.5 12C1.5 17.7984 6.20156 22.5 12 22.5C17.7984 22.5 22.5 17.7984 22.5 12C22.5 6.20156 17.7984 1.5 12 1.5ZM14.2125 7.95H17.8266V9.02813H14.2125V7.95ZM12.3844 13.6125C12.3844 16.2844 9.6 16.2 9.6 16.2H5.04375V7.43438H9.6C10.9875 7.43438 12.0797 8.19844 12.0797 9.76875C12.0797 11.3391 10.7437 11.4375 10.7437 11.4375C12.5062 11.4375 12.3844 13.6125 12.3844 13.6125ZM19.1437 13.4672H14.6016C14.6016 15.0937 16.1437 14.9906 16.1437 14.9906C17.6016 14.9906 17.55 14.0484 17.55 14.0484H19.0922C19.0922 16.5516 16.0922 16.3781 16.0922 16.3781C12.4969 16.3781 12.7266 13.0266 12.7266 13.0266C12.7266 13.0266 12.7219 9.66094 16.0922 9.66094C19.6406 9.66563 19.1437 13.4672 19.1437 13.4672ZM16.1297 10.95C14.775 10.95 14.5875 12.3 14.5875 12.3H17.4656C17.4656 12.3 17.4844 10.95 16.1297 10.95ZM9.59999 12.3H7.04999V14.6437H9.47343C9.83905 14.6343 10.5234 14.5312 10.5234 13.5046C10.5234 12.2859 9.59999 12.3 9.59999 12.3ZM9.59999 8.99536C9.59999 8.99536 10.2187 8.99536 10.2187 9.90474C10.2187 10.8141 9.85311 10.95 9.44061 10.95H7.04999V8.99536H9.59999Z" fill="black"/>
</svg>
