<svg width="24" height="24" viewBox="0 0 24 24" fill="none" xmlns="http://www.w3.org/2000/svg">
<path fill-rule="evenodd" clip-rule="evenodd" d="M3 6.375C3 5.75368 3.50368 5.25 4.125 5.25H19.875C20.4963 5.25 21 5.75368 21 6.375V17.625C21 18.2463 20.4963 18.75 19.875 18.75H4.125C3.50368 18.75 3 18.2463 3 17.625V6.375ZM4.125 3.75C2.67525 3.75 1.5 4.92525 1.5 6.375V17.625C1.5 19.0747 2.67525 20.25 4.125 20.25H19.875C21.3247 20.25 22.5 19.0747 22.5 17.625V6.375C22.5 4.92525 21.3247 3.75 19.875 3.75H4.125ZM5.71046 6.90799C5.3835 6.65368 4.91229 6.71258 4.65799 7.03954C4.40368 7.3665 4.46258 7.83771 4.78954 8.09201L11.5395 13.342C11.8104 13.5527 12.1896 13.5527 12.4605 13.342L19.2105 8.09201C19.5374 7.83771 19.5963 7.3665 19.342 7.03954C19.0877 6.71258 18.6165 6.65368 18.2895 6.90799L12 11.7999L5.71046 6.90799Z" fill="black"/>
</svg>
