<svg width="25" height="25" viewBox="0 0 25 25" fill="none" xmlns="http://www.w3.org/2000/svg">
<path d="M18.4281 11.2546V19.8796C18.4281 20.1259 18.3796 20.3697 18.2854 20.5972C18.1911 20.8247 18.053 21.0314 17.8789 21.2055C17.7048 21.3796 17.4981 21.5177 17.2706 21.6119C17.0431 21.7061 16.7993 21.7546 16.5531 21.7546H5.3031C4.80582 21.7546 4.32891 21.5571 3.97728 21.2055C3.62564 20.8538 3.4281 20.3769 3.4281 19.8796V8.62964C3.4281 8.13236 3.62564 7.65544 3.97728 7.30381C4.32891 6.95218 4.80582 6.75464 5.3031 6.75464H13.1537M16.1781 3.75464H21.4281V9.00464M10.9281 14.2546L21.0531 4.12964" stroke="black" stroke-width="1.5" stroke-linecap="round" stroke-linejoin="round"/>
</svg>
