<svg width="133" height="46" viewBox="0 0 133 46" fill="none" xmlns="http://www.w3.org/2000/svg">
<path d="M39.7635 1.04364C11.8587 0.224123 7.07298 11.1167 2.86031 19.4826C-1.35237 27.8485 1.34371 46.5266 13.4762 42.0192C28.6419 36.3851 44.8187 42.5315 65.0396 39.9705C88.2936 37.0254 97.393 47.1412 118.119 44.5803C138.846 42.0193 137.065 1.87004 108.009 5.14113C76.1611 8.72648 74.6445 2.06803 39.7635 1.04364Z" stroke="#CCCCCC"/>
<path d="M43.4372 8.02975C19.3667 7.47099 15.2385 14.8977 11.6047 20.6018C7.97085 26.3058 10.2965 39.0408 20.7619 35.9677C33.8438 32.1262 47.7978 36.3169 65.2402 34.5708C85.299 32.5627 93.1481 39.4599 111.027 37.7138C128.905 35.9677 127.369 8.59321 102.305 10.8235C74.8336 13.2681 73.5254 8.7282 43.4372 8.02975Z" stroke="#CCCCCC"/>
</svg>
