<svg width="366" height="328" viewBox="0 0 366 328" fill="none" xmlns="http://www.w3.org/2000/svg">
<path d="M1 313.09C12.3333 310.757 32.2 293.09 21 241.09C7 176.09 1.5 117.59 21 78.0902C40.5 38.5902 -10 10.5902 86 6.09025C182 1.59025 257.5 -10.9098 290 33.5902C322.5 78.0902 348 28.0903 356 90.0903C364 152.09 380 165.09 335 221.09C290 277.09 330.5 289.09 298.5 308.59C266.5 328.09 238 331.09 210 322.09C182 313.09 163 294.59 110.5 297.59C58 300.59 49 286.09 41 253.59C33 221.09 32 211.59 26.5 176.59C21 141.59 17.5 124.59 41 98.5903C64.5 72.5903 56.5 18.5903 110.5 29.5903C164.5 40.5903 207 65.5903 248.5 70.0903C290 74.5903 333 54.5903 332 96.0903C331 137.59 312 192.09 298.5 201.59C285 211.09 278 207.59 271.5 245.59C265 283.59 277 301.59 239.5 297.59C202 293.59 164 290.59 154 283.09C144 275.59 134 299.59 104.5 264.59C75 229.59 45 265.09 71 201.59C97 138.09 83 114.59 118.5 106.59C154 98.5903 107.5 85.0903 173.5 98.5903C239.5 112.09 314.5 50.0903 277 135.59C239.5 221.09 235.5 246.09 239.5 264.59C243.5 283.09 222.5 289.09 198 283.09C173.5 277.09 170.5 244.59 154 228.09C137.5 211.59 101 208.59 127.5 189.09C154 169.59 180 147.59 198 145.59C216 143.59 237 170.59 226.5 182.09C216 193.59 186 169.59 198 207.59C210 245.59 189.5 234.59 181.5 221.09" stroke="#9aa0a6"/>
</svg>
