<svg width="405" height="375" viewBox="0 0 405 375" fill="none" xmlns="http://www.w3.org/2000/svg">
<path d="M1 343.945C13.471 341.395 35.3318 322.095 23.0076 265.288C7.60227 194.278 1.55019 130.37 23.0076 87.2176C44.4649 44.0657 -11.1042 13.4769 94.5321 8.56087C200.168 3.64482 283.247 -10.0109 319.009 38.6034C354.772 87.2176 382.831 32.5949 391.634 100.327C400.437 168.059 418.043 182.261 368.526 243.439C319.009 304.616 363.575 317.726 328.363 339.029C293.15 360.331 261.79 363.609 230.979 353.777C200.168 343.945 179.261 323.734 121.491 327.012C63.7216 330.289 53.8182 314.448 45.0151 278.944C36.2121 243.439 35.1117 233.06 29.0596 194.824C23.0076 156.589 19.1562 138.017 45.0151 109.613C70.874 81.2091 62.071 22.2166 121.491 34.2336C180.912 46.2506 227.678 73.562 273.344 78.478C319.009 83.3941 366.326 61.545 365.225 106.882C364.125 152.219 343.218 211.758 328.363 222.136C313.507 232.514 305.805 228.691 298.652 270.204C291.5 311.717 308.99 376.159 267.726 371.789" stroke="#E6E6E6" stroke-width="6"/>
</svg>
